<svg width="32" height="32" viewBox="0 0 32 32" fill="none" xmlns="http://www.w3.org/2000/svg">
<path d="M10.6559 17.5618V21.4124C13.497 21.4089 16.2209 20.2761 18.2299 18.2623C20.2389 16.2485 21.369 13.5182 21.3725 10.6703H17.531C17.5287 12.4973 16.8036 14.2489 15.5148 15.5408C14.226 16.8327 12.4786 17.5595 10.6559 17.5618Z" fill="#3BE081"/>
<path d="M10.6558 28.169C8.84624 28.169 7.11078 27.4484 5.83121 26.1658C4.55165 24.8832 3.8328 23.1436 3.8328 21.3297C3.8328 19.5158 4.55165 17.7762 5.83121 16.4936C7.11078 15.211 8.84624 14.4905 10.6558 14.4905V10.6681C9.25847 10.6661 7.87442 10.94 6.58267 11.4742C5.29093 12.0084 4.1168 12.7923 3.12732 13.7813C2.13784 14.7703 1.35238 15.945 0.815796 17.2383C0.279211 18.5316 0.00200706 19.9182 1.08587e-05 21.3188C-0.00198535 22.7195 0.271266 24.1068 0.804162 25.4017C1.33706 26.6965 2.11916 27.8734 3.10582 28.8652C4.09248 29.8571 5.26437 30.6444 6.55459 31.1823C7.8448 31.7201 9.22807 31.998 10.6254 32H10.6558V28.169Z" fill="#0037FF"/>
<path d="M10.6559 28.169V31.9913C13.4779 31.9913 16.1844 30.8675 18.1799 28.8673C20.1754 26.8671 21.2965 24.1541 21.2965 21.3253H17.4789C17.4778 23.1393 16.7587 24.8787 15.4795 26.1617C14.2003 27.4448 12.4655 28.1667 10.6559 28.169Z" fill="#00CCFF"/>
<path d="M10.6559 6.84361V10.6659C13.4779 10.6659 16.1844 9.5422 18.1799 7.54195C20.1754 5.5417 21.2965 2.82878 21.2965 0H17.4789C17.4778 1.81393 16.7587 3.5533 15.4795 4.83635C14.2003 6.1194 12.4655 6.8413 10.6559 6.84361Z" fill="#861DFF"/>
<path d="M21.3594 6.84361V10.6659C24.1814 10.6659 26.8879 9.5422 28.8834 7.54195C30.8789 5.5417 32 2.82878 32 0H28.1846C28.1834 1.81431 27.464 3.55401 26.1844 4.83712C24.9047 6.12023 23.1694 6.84188 21.3594 6.84361Z" fill="#FC7F10"/>
</svg>
